<!--?xml version="1.0" encoding="utf-8"?-->
<!-- Generator: Adobe Illustrator 18.1.1, SVG Export Plug-In . SVG Version: 6.00 Build 0)  -->

<svg version="1.1" id="_x32_" xmlns="http://www.w3.org/2000/svg" xmlns:xlink="http://www.w3.org/1999/xlink" x="0px" y="0px" viewBox="0 0 512 512" style="width: 256px; height: 256px; opacity: 1;" xml:space="preserve">
<style type="text/css">
	.st0{fill:#4B4B4B;}
</style>
<g>
	<path class="st0" d="M470.537,137.504H41.471C18.565,137.504,0,156.077,0,178.976v56.797l211.507,44.607V252.1h87.772v28.28
		L512,235.489v-56.513C512,156.077,493.435,137.504,470.537,137.504z" style="fill: rgb(229, 231, 235);"></path>
	<path class="st0" d="M299.279,369.129h-87.772v-57.017L14.633,273.012V439.81c0,22.898,18.557,41.47,41.455,41.47h399.824
		c22.898,0,41.463-18.572,41.463-41.47V272.721l-198.096,39.39V369.129z" style="fill: rgb(229, 231, 235);"></path>
	<rect x="233.452" y="274.044" class="st0" width="43.882" height="73.132" style="fill: rgb(229, 231, 235);"></rect>
	<path class="st0" d="M193.786,72.206c0.008-1.703,0.638-3.057,1.75-4.208c1.127-1.103,2.49-1.718,4.176-1.734h112.577
		c1.686,0.016,3.058,0.631,4.185,1.734c1.103,1.151,1.726,2.505,1.733,4.208v29.627h35.546V72.206
		c0.008-11.41-4.665-21.875-12.143-29.329c-7.446-7.485-17.934-12.166-29.321-12.158H199.712
		c-11.394-0.008-21.875,4.673-29.32,12.158c-7.47,7.454-12.158,17.918-12.135,29.329v29.627h35.529V72.206z" style="fill: rgb(229, 231, 235);"></path>
</g>
</svg>
