<!--?xml version="1.0" encoding="utf-8"?-->
<!-- Generator: Adobe Illustrator 18.1.1, SVG Export Plug-In . SVG Version: 6.00 Build 0)  -->

<svg version="1.1" id="_x32_" xmlns="http://www.w3.org/2000/svg" xmlns:xlink="http://www.w3.org/1999/xlink" x="0px" y="0px" viewBox="0 0 512 512" style="width: 256px; height: 256px; opacity: 1;" xml:space="preserve">
<style type="text/css">
	.st0{fill: rgb(229 231 235);}
</style>
<g>
	<path class="st0" d="M256,0C114.616,0,0,114.616,0,256s114.616,256,256,256s256-114.616,256-256S397.384,0,256,0z M256,362.058
		C197.425,362.05,149.95,314.575,149.942,256C149.95,197.425,197.425,149.95,256,149.942C314.575,149.95,362.05,197.425,362.058,256
		C362.05,314.575,314.575,362.05,256,362.058z"></path>
	<path class="st0" d="M256,179.2c-21.25,0.008-40.358,8.575-54.309,22.491C187.775,215.642,179.208,234.75,179.2,256
		c0.008,21.25,8.575,40.358,22.491,54.309c13.95,13.916,33.059,22.483,54.309,22.491c21.25-0.008,40.358-8.575,54.309-22.491
		c13.916-13.95,22.483-33.059,22.491-54.309c-0.008-21.25-8.575-40.358-22.491-54.309C296.358,187.775,277.25,179.208,256,179.2z
		 M256,297.633c-22.991,0-41.633-18.642-41.633-41.633s18.642-41.633,41.633-41.633c22.991,0,41.633,18.642,41.633,41.633
		S278.991,297.633,256,297.633z"></path>
</g>
</svg>
